<?xml version="1.0" encoding="UTF-8" standalone="no"?>
<!DOCTYPE svg PUBLIC "-//W3C//DTD SVG 1.1//EN" "http://www.w3.org/Graphics/SVG/1.1/DTD/svg11.dtd">
<svg width="100%" height="100%" viewBox="0 0 1000 1000" version="1.1" xmlns="http://www.w3.org/2000/svg" xmlns:xlink="http://www.w3.org/1999/xlink" xml:space="preserve" xmlns:serif="http://www.serif.com/" style="fill-rule:evenodd;clip-rule:evenodd;stroke-linejoin:round;stroke-miterlimit:2;">
    <g transform="matrix(0.1,0,0,-0.1,0,626)">
        <g>
            <path d="M4561.9,6026.2C3422.4,5911.3 2420.7,5453.4 1605.9,4675.3C284,3413.3 -222.9,1483.4 307,-268.7C486.2,-864.5 797.1,-1451.1 1193.8,-1945.8C1616.5,-2472.7 2203.1,-2939.8 2831.1,-3247.7C3175.7,-3417.7 3396.3,-3501.9 3515.7,-3512.7C3630.6,-3521.9 3713.3,-3477.5 3760.8,-3381C3793,-3313.6 3793,-3301.4 3783.8,-2846.5C3779.2,-2589.2 3771.5,-2376.3 3768.5,-2371.7C3763.9,-2368.6 3721,-2371.7 3672,-2380.9C3100.7,-2486.6 2642.8,-2385.5 2339.5,-2085.3C2232.3,-1978.1 2204.7,-1939.8 2143.5,-1808.1C1945.9,-1386.9 1820.3,-1218.4 1579.9,-1059.1C1471,-987.1 1399,-907.5 1399,-856.9C1399,-804.8 1475.6,-774.2 1604.2,-774.2C1884.5,-774.2 2155.6,-954.9 2374.6,-1287.3C2613.5,-1650.3 2873.9,-1805 3244.6,-1803.5C3399.3,-1802 3610.7,-1759.1 3743.9,-1702.4C3794.4,-1681 3800.6,-1673.3 3809.8,-1599.8C3832.8,-1432.8 3944.6,-1192.4 4054.9,-1074.4C4077.9,-1051.4 4094.7,-1030 4091.7,-1026.9C4088.6,-1025.4 4004.4,-1011.6 3903.3,-996.3C2883.2,-847.7 2273.6,-395.9 2011.7,405.2C1896.8,754.4 1843.2,1325.7 1890.7,1668.8C1939.7,2022.6 2083.7,2359.6 2298.1,2619.9C2362.4,2696.5 2377.7,2724 2367,2745.5C2339.4,2796 2302.7,2970.7 2287.4,3119.2C2262.9,3358.1 2307.3,3689 2396.2,3932.5L2428.4,4019.8L2540.2,4019.8C2806.7,4019.8 3235.6,3854.4 3646,3592.5L3771.6,3512.9L3952.3,3552.7C4352,3643.1 4509.8,3658.4 4998.4,3658.4C5488.5,3658.4 5663.1,3641.5 6055.2,3551.2L6232.9,3511.4L6363.1,3595.6C6769,3860.6 7216.2,4029.1 7479.7,4016.8L7577.7,4012.2L7619,3882C7695.6,3643.1 7714,3523.6 7714,3277C7714,3054.9 7704.8,2981.4 7646.6,2777.7L7626.7,2705.7L7697.2,2624.5C7882.5,2402.4 8020.4,2117.5 8086.2,1814.3C8130.6,1612.1 8127.6,1051.5 8078.5,780.5C7989.7,275.1 7795.2,-114 7488.8,-403.4C7145.7,-728.1 6677,-916.5 5975.6,-1011.5L5905.2,-1020.7L5981.8,-1123.3C6075.2,-1245.8 6136.5,-1374.5 6180.9,-1544.5C6213.1,-1665.5 6214.6,-1700.7 6217.6,-2481.9C6219.1,-2929.1 6225.3,-3318.2 6229.9,-3347.3C6239.1,-3402.4 6291.2,-3465.2 6357,-3498.9C6422.8,-3532.6 6534.7,-3518.8 6703.1,-3454.5C7384.7,-3198.7 7942.2,-2838.8 8459.9,-2321.1C8720.3,-2060.7 8907.1,-1835.6 9089.4,-1558.3C9982.3,-209 10149.2,1506.4 9532,3007.4C9358.9,3430.1 9120,3832.9 8825.9,4205.1C8663.5,4410.3 8268.4,4805.5 8061.6,4969.4C7360.1,5525.4 6575.9,5863.9 5672.3,5997.1C5434.9,6032.4 4793.1,6049.2 4561.9,6026.2Z" style="fill:white;fill-rule:nonzero;"/>
            <path d="M1834,-935C1811,-994.7 1899.9,-1046.8 1945.8,-999.3C1967.2,-979.4 1965.7,-973.3 1936.6,-944.2C1899.9,-907.5 1846.3,-901.3 1834,-935Z" style="fill:white;fill-rule:nonzero;"/>
            <path d="M2033.1,-1102C2019.3,-1140.3 2033.1,-1175.5 2072.9,-1206.1C2121.9,-1241.3 2164.8,-1229.1 2164.8,-1178.5C2164.9,-1108.1 2054.6,-1045.3 2033.1,-1102Z" style="fill:white;fill-rule:nonzero;"/>
            <path d="M2235.3,-1350.1C2200.1,-1383.8 2204.7,-1409.8 2253.7,-1465C2287.4,-1501.8 2304.2,-1510.9 2330.3,-1503.3C2380.8,-1486.5 2376.2,-1399.1 2324.2,-1357.8C2275.1,-1319.5 2265.9,-1317.9 2235.3,-1350.1Z" style="fill:white;fill-rule:nonzero;"/>
            <path d="M2448.2,-1647.2C2429.8,-1706.9 2504.9,-1789.6 2573.8,-1782C2671.8,-1771.3 2612.1,-1616.6 2509.5,-1616.6C2471.2,-1616.6 2455.9,-1624.2 2448.2,-1647.2Z" style="fill:white;fill-rule:nonzero;"/>
            <path d="M2812.7,-1831C2766.8,-1849.4 2766.8,-1913.7 2811.2,-1944.3C2852.5,-1973.4 2932.2,-1976.5 2958.2,-1950.4C3018,-1890.8 2901.6,-1795.8 2812.7,-1831Z" style="fill:white;fill-rule:nonzero;"/>
            <path d="M3569.4,-1873.9C3515.8,-1932.1 3548,-1984.2 3635.3,-1984.2C3710.3,-1984.2 3768.6,-1926 3744.1,-1878.5C3721,-1835.6 3606.1,-1832.5 3569.4,-1873.9Z" style="fill:white;fill-rule:nonzero;"/>
            <path d="M3191.1,-1922.9C3142.1,-1971.9 3186.5,-2030.1 3275.3,-2030.1C3336.6,-2030.1 3374.9,-2002.5 3374.9,-1961.2C3374.8,-1892.3 3247.7,-1866.2 3191.1,-1922.9Z" style="fill:white;fill-rule:nonzero;"/>
        </g>
    </g>
</svg>
