<?xml version="1.0" encoding="UTF-8" standalone="no"?>
<!DOCTYPE svg PUBLIC "-//W3C//DTD SVG 1.1//EN" "http://www.w3.org/Graphics/SVG/1.1/DTD/svg11.dtd">
<svg width="100%" height="100%" viewBox="0 0 1000 1000" version="1.1" xmlns="http://www.w3.org/2000/svg" xmlns:xlink="http://www.w3.org/1999/xlink" xml:space="preserve" xmlns:serif="http://www.serif.com/" style="fill-rule:evenodd;clip-rule:evenodd;stroke-linejoin:round;stroke-miterlimit:2;">
    <g>
        <path d="M879.8,223.1C879.8,223.1 958.4,216.8 990,192.9C990,192.9 982.4,220.4 887.9,307.4C887.9,307.4 919.7,777 434.5,892C434.5,892 188.4,945.4 10.1,809.3C10.1,809.3 196.8,843 301.8,725.1C301.8,725.1 166.3,726.5 123.5,586.2C123.5,586.2 174.7,597.4 205.1,583.4C205.1,583.4 51.6,551.1 54.4,381.3C54.4,381.3 95.9,412.2 133.2,406.6C133.2,406.6 -5,287.3 80.7,138.6C80.7,138.6 265.9,360.9 495.5,347.7C491.5,331.8 489.3,315.1 489.3,297.9C489.3,187.4 577.6,97.7 686.6,97.7C741.6,97.7 791.4,120.6 827.2,157.5C853.4,157.9 907.4,153.2 961.3,114C961.1,114.1 964.2,156.9 879.8,223.1Z" style="fill:white;fill-rule:nonzero;"/>
    </g>
</svg>
